<svg width="1024" height="1024" viewBox="0 0 1024 1024" xmlns="http://www.w3.org/2000/svg" role="img" aria-label="ClaudeGauge app icon">
  <defs>
    <linearGradient id="tile" x1="512" y1="0" x2="512" y2="1024" gradientUnits="userSpaceOnUse">
      <stop offset="0" stop-color="#1b2230"/>
      <stop offset="1" stop-color="#10151f"/>
    </linearGradient>
    <linearGradient id="arc" x1="300" y1="740" x2="760" y2="300" gradientUnits="userSpaceOnUse">
      <stop offset="0" stop-color="#38bdf8"/>
      <stop offset="1" stop-color="#3b82f6"/>
    </linearGradient>
    <linearGradient id="needle" x1="512" y1="512" x2="720" y2="330" gradientUnits="userSpaceOnUse">
      <stop offset="0" stop-color="#e8f4ff"/>
      <stop offset="1" stop-color="#7dd3fc"/>
    </linearGradient>
    <radialGradient id="glow" cx="512" cy="470" r="360" gradientUnits="userSpaceOnUse">
      <stop offset="0" stop-color="#38bdf8" stop-opacity="0.14"/>
      <stop offset="1" stop-color="#38bdf8" stop-opacity="0"/>
    </radialGradient>
  </defs>

  <rect x="0" y="0" width="1024" height="1024" rx="200" ry="200" fill="url(#tile)"/>
  <rect x="6" y="6" width="1012" height="1012" rx="196" ry="196" fill="none" stroke="#ffffff" stroke-opacity="0.05" stroke-width="4"/>

  <circle cx="512" cy="470" r="340" fill="url(#glow)"/>

  <path d="M 335.22 666.78 A 250 250 0 1 1 688.78 666.78"
        fill="none" stroke="#2a3547" stroke-width="82" stroke-linecap="round"/>
  <path d="M 335.22 666.78 A 250 250 0 1 1 658.95 692.25"
        fill="none" stroke="url(#arc)" stroke-width="82" stroke-linecap="round"/>

  <g stroke-linejoin="round">
    <path d="M 632.5 655.8 L 545.1 484.5 L 475.6 439.8 L 496.5 519.7 Z"
          fill="url(#needle)" stroke="url(#needle)" stroke-width="18"/>
    <circle cx="512" cy="490" r="58" fill="#0d1119"/>
    <circle cx="512" cy="490" r="38" fill="#eaf6ff"/>
    <circle cx="512" cy="490" r="17" fill="#3b82f6"/>
  </g>
</svg>
